<?xml version="1.0" encoding="iso-8859-1"?>
<!-- Generator: Adobe Illustrator 19.0.0, SVG Export Plug-In . SVG Version: 6.00 Build 0)  -->
<svg version="1.1" id="Capa_1" xmlns="http://www.w3.org/2000/svg" xmlns:xlink="http://www.w3.org/1999/xlink" x="0px" y="0px"
	 viewBox="0 0 512 512" style="enable-background:new 0 0 512 512;" xml:space="preserve">
<g>
	<g>
		<path d="M434.371,0H77.629C49.7,0,26.977,22.723,26.977,50.653v410.694C26.977,489.277,49.7,512,77.629,512h356.741
			c27.93,0,50.653-22.723,50.653-50.653V50.653C485.023,22.723,462.3,0,434.371,0z M454.603,461.347
			c0,11.156-9.076,20.233-20.232,20.233H77.629c-11.156,0-20.232-9.076-20.232-20.233V50.653c0-11.156,9.076-20.233,20.232-20.233
			h356.741c11.156,0,20.232,9.076,20.232,20.233V461.347z"/>
	</g>
</g>
<g>
	<g>
		<path d="M383.7,52.654H129.483c-27.61,0-50.073,22.462-50.073,50.073V145.7c0,27.61,22.462,50.073,50.073,50.073H383.7
			c27.61,0,50.073-22.462,50.073-50.073v-42.973C433.772,75.117,411.31,52.654,383.7,52.654z M403.352,145.7
			c0,10.837-8.816,19.652-19.653,19.652H129.483c-10.837,0-19.652-8.816-19.652-19.652v-42.973c0-10.837,8.816-19.652,19.652-19.652
			H383.7c10.837,0,19.653,8.816,19.653,19.652V145.7z"/>
	</g>
</g>
<g>
	<g>
		<path d="M132.64,227.779c-29.352,0-53.23,23.879-53.23,53.231s23.879,53.231,53.23,53.231c29.351,0,53.231-23.879,53.231-53.231
			S161.993,227.779,132.64,227.779z M132.64,303.82c-12.578,0-22.81-10.233-22.81-22.811s10.232-22.811,22.81-22.811
			s22.811,10.233,22.811,22.811S145.219,303.82,132.64,303.82z"/>
	</g>
</g>
<g>
	<g>
		<path d="M256.592,227.779c-29.352,0-53.231,23.879-53.231,53.231s23.88,53.231,53.231,53.231c29.351,0,53.23-23.879,53.23-53.231
			S285.943,227.779,256.592,227.779z M256.592,303.82c-12.578,0-22.811-10.233-22.811-22.811s10.233-22.811,22.811-22.811
			s22.81,10.233,22.81,22.811S269.169,303.82,256.592,303.82z"/>
	</g>
</g>
<g>
	<g>
		<path d="M132.64,350.281c-29.352,0-53.23,23.879-53.23,53.231s23.879,53.231,53.23,53.231c29.351,0,53.231-23.879,53.231-53.231
			S161.993,350.281,132.64,350.281z M132.64,426.322c-12.578,0-22.81-10.233-22.81-22.811s10.232-22.811,22.81-22.811
			s22.811,10.233,22.811,22.811S145.219,426.322,132.64,426.322z"/>
	</g>
</g>
<g>
	<g>
		<path d="M256.592,350.281c-29.352,0-53.231,23.879-53.231,53.231s23.88,53.231,53.231,53.231c29.351,0,53.23-23.879,53.23-53.231
			S285.943,350.281,256.592,350.281z M256.592,426.322c-12.578,0-22.811-10.233-22.811-22.811s10.233-22.811,22.811-22.811
			s22.81,10.233,22.81,22.811S269.169,426.322,256.592,426.322z"/>
	</g>
</g>
<g>
	<g>
		<path d="M387.39,227.779h-13.696c-25.576,0-46.383,20.807-46.383,46.383V410.36c0,25.575,20.807,46.383,46.383,46.383h13.696
			c25.576,0,46.383-20.807,46.383-46.383V274.161C433.772,248.586,412.965,227.779,387.39,227.779z M403.352,410.36
			c0,8.802-7.161,15.963-15.963,15.963h-13.696c-8.803,0-15.963-7.161-15.963-15.963V274.161c0-8.802,7.161-15.963,15.963-15.963
			h13.696c8.803,0,15.963,7.161,15.963,15.963V410.36z"/>
	</g>
</g>
<g>
</g>
<g>
</g>
<g>
</g>
<g>
</g>
<g>
</g>
<g>
</g>
<g>
</g>
<g>
</g>
<g>
</g>
<g>
</g>
<g>
</g>
<g>
</g>
<g>
</g>
<g>
</g>
<g>
</g>
</svg>
