<?xml version="1.0" encoding="iso-8859-1"?>
<!-- Generator: Adobe Illustrator 19.0.0, SVG Export Plug-In . SVG Version: 6.00 Build 0)  -->
<svg version="1.1" id="Capa_1" xmlns="http://www.w3.org/2000/svg" xmlns:xlink="http://www.w3.org/1999/xlink" x="0px" y="0px"
	 viewBox="0 0 512.001 512.001" style="enable-background:new 0 0 512.001 512.001;" xml:space="preserve">
<g>
	<g>
		<path d="M394.584,116.03c-15.51,0-30.882,3.097-45.105,9.005c-26.819-40.879-72.295-65.739-121.862-65.739
			c-31.953,0-62.292,10.148-87.735,29.347c-21.664,16.348-38.528,38.773-48.288,63.947C40.428,156.527,0,199.419,0,251.577
			c0,54.744,44.538,99.283,99.283,99.283h16.294c11.932,58.053,63.428,101.846,124.961,101.846
			c61.531,0,113.028-43.791,124.96-101.846h25.764c0.563,0,1.116-0.037,1.663-0.097c0.547,0.06,1.1,0.097,1.663,0.097
			c64.743,0,117.415-52.672,117.415-117.415S459.327,116.03,394.584,116.03z M240.538,422.713
			c-53.803,0-97.574-43.771-97.574-97.574s43.771-97.574,97.574-97.574c53.802,0,97.574,43.771,97.574,97.574
			C338.11,378.942,294.339,422.713,240.538,422.713z M394.584,320.867c-0.563,0-1.116,0.037-1.663,0.097
			c-0.547-0.06-1.1-0.097-1.663-0.097h-23.237c-2.261-68.37-58.576-123.294-127.486-123.294S115.312,252.497,113.05,320.867H99.283
			c-38.207,0-69.292-31.084-69.292-69.291s31.084-69.29,69.292-69.29c0.532,0,1.057-0.03,1.575-0.084
			c0.509,0.052,1.017,0.088,1.522,0.088c6.443,0,12.398-4.187,14.352-10.674c7.024-23.313,21.661-44.278,41.216-59.033
			c20.198-15.241,44.289-23.296,69.67-23.296c43.253,0,82.592,23.829,102.666,62.186c3.84,7.338,12.901,10.173,20.24,6.333
			c0.196-0.103,0.375-0.223,0.565-0.333c0.485-0.204,0.965-0.432,1.437-0.692c12.8-7.04,27.344-10.76,42.06-10.76
			c48.205,0,87.423,39.218,87.423,87.423S442.789,320.867,394.584,320.867z"/>
	</g>
</g>
<g>
	<g>
		<path d="M279.912,333.229c-5.86-5.857-15.356-5.857-21.211,0l-3.167,3.167v-56.071c0-8.282-6.714-14.996-14.996-14.996
			c-8.282,0-14.996,6.714-14.996,14.996v56.071l-3.167-3.167c-5.855-5.856-15.351-5.856-21.207,0
			c-5.856,5.856-5.856,15.351,0,21.207l28.764,28.764c0.35,0.35,0.719,0.682,1.103,0.997c0.171,0.141,0.352,0.263,0.527,0.394
			c0.215,0.162,0.426,0.328,0.651,0.478c0.213,0.143,0.435,0.266,0.654,0.397c0.201,0.12,0.398,0.247,0.605,0.357
			c0.224,0.12,0.454,0.221,0.682,0.329c0.215,0.102,0.427,0.209,0.648,0.301c0.223,0.092,0.45,0.166,0.676,0.247
			c0.236,0.085,0.469,0.175,0.71,0.248c0.226,0.068,0.455,0.118,0.683,0.176c0.247,0.062,0.49,0.131,0.741,0.181
			c0.262,0.052,0.527,0.083,0.791,0.121c0.22,0.031,0.437,0.073,0.66,0.095c0.492,0.049,0.986,0.075,1.48,0.075
			s0.988-0.026,1.48-0.075c0.223-0.022,0.44-0.064,0.66-0.095c0.264-0.038,0.529-0.069,0.791-0.121
			c0.251-0.05,0.495-0.119,0.741-0.181c0.228-0.057,0.457-0.107,0.683-0.176c0.241-0.073,0.474-0.163,0.71-0.248
			c0.226-0.081,0.453-0.155,0.676-0.247c0.221-0.091,0.432-0.199,0.648-0.301c0.228-0.108,0.458-0.209,0.682-0.329
			c0.207-0.111,0.404-0.237,0.605-0.357c0.219-0.131,0.44-0.254,0.654-0.397c0.224-0.15,0.435-0.317,0.651-0.478
			c0.176-0.132,0.356-0.254,0.527-0.394c0.383-0.315,0.752-0.646,1.103-0.997l28.764-28.764
			C285.768,348.58,285.768,339.085,279.912,333.229z"/>
	</g>
</g>
<g>
</g>
<g>
</g>
<g>
</g>
<g>
</g>
<g>
</g>
<g>
</g>
<g>
</g>
<g>
</g>
<g>
</g>
<g>
</g>
<g>
</g>
<g>
</g>
<g>
</g>
<g>
</g>
<g>
</g>
</svg>
