<?xml version="1.0" encoding="UTF-8" ?>
<!DOCTYPE svg PUBLIC "-//W3C//DTD SVG 1.1//EN" "http://www.w3.org/Graphics/SVG/1.1/DTD/svg11.dtd">
<svg width="512pt" height="512pt" viewBox="0 0 512 512" version="1.1" xmlns="http://www.w3.org/2000/svg">
<g id="#98a5e1ff">
<path fill="#98a5e1" opacity="1.00" d=" M 188.30 82.24 C 221.09 69.45 257.52 66.38 292.05 73.09 C 327.42 79.93 360.64 97.39 386.40 122.57 C 422.58 157.47 443.64 207.58 442.67 257.89 C 442.19 262.70 436.19 265.57 432.09 263.07 C 429.14 261.57 428.15 258.11 428.35 255.03 C 428.11 220.20 417.01 185.53 396.90 157.09 C 377.87 129.94 350.90 108.41 320.11 96.08 C 289.22 83.57 254.66 80.44 221.99 86.91 C 187.39 93.59 155.05 111.30 130.67 136.74 C 105.22 162.99 88.51 197.58 83.89 233.86 C 79.84 264.71 84.28 296.62 96.64 325.18 C 106.94 349.28 122.91 370.88 142.77 387.97 C 142.53 363.60 151.03 339.28 166.50 320.43 C 179.71 304.11 197.92 291.94 218.05 285.98 C 203.11 277.56 191.35 263.80 185.11 247.85 C 179.38 233.40 178.19 217.17 181.88 202.06 C 185.60 186.41 194.49 172.06 206.80 161.71 C 219.88 150.57 236.85 144.08 254.04 143.75 C 271.16 143.27 288.34 148.86 301.97 159.23 C 316.44 170.11 326.88 186.30 330.56 204.05 C 334.10 220.51 331.89 238.09 324.43 253.18 C 317.71 267.09 306.61 278.74 293.23 286.42 C 319.30 293.97 341.99 312.22 355.08 335.97 C 363.93 351.77 368.48 369.89 368.41 387.99 C 380.18 377.86 390.51 366.13 399.38 353.40 C 401.57 350.03 406.80 349.59 409.68 352.31 C 412.28 354.60 412.53 358.83 410.51 361.58 C 390.29 391.75 361.00 415.77 327.38 429.52 C 280.83 448.89 226.40 448.17 180.40 427.53 C 147.07 412.78 118.22 388.09 98.54 357.41 C 78.19 326.01 67.77 288.35 68.93 250.96 C 69.92 214.83 81.86 179.12 102.64 149.57 C 123.72 119.34 153.89 95.49 188.30 82.24 M 245.47 158.68 C 232.40 160.83 220.06 167.30 210.95 176.92 C 201.60 186.62 195.64 199.48 194.22 212.87 C 192.37 228.34 196.83 244.39 206.20 256.82 C 215.10 268.80 228.48 277.39 243.13 280.33 C 257.35 283.19 272.62 281.29 285.43 274.37 C 299.96 266.66 311.08 252.89 315.67 237.11 C 319.91 222.81 318.75 206.95 312.31 193.48 C 306.48 180.91 296.23 170.47 283.81 164.33 C 272.07 158.39 258.42 156.48 245.47 158.68 M 170.46 339.39 C 159.55 357.00 155.47 378.40 157.81 398.85 C 194.16 424.45 240.75 434.83 284.56 427.30 C 309.57 423.13 333.57 413.27 354.40 398.82 C 354.35 390.83 354.71 382.81 353.61 374.87 C 351.19 355.83 342.47 337.69 329.19 323.84 C 316.17 310.12 298.77 300.63 280.16 297.19 C 268.59 294.91 256.74 295.68 245.02 295.68 C 214.89 296.47 185.95 313.58 170.46 339.39 Z" />
<path fill="#98a5e1" opacity="1.00" d=" M 427.31 298.57 C 431.87 296.91 436.75 301.42 436.06 306.04 C 435.32 309.56 434.87 313.62 432.11 316.20 C 428.83 319.27 422.93 317.86 421.14 313.82 C 419.53 310.69 421.37 307.33 422.18 304.25 C 422.79 301.63 424.66 299.29 427.31 298.57 Z" />
</g>
</svg>
