<svg height="511pt" viewBox="0 -10 511.99939 511" width="511pt" xmlns="http://www.w3.org/2000/svg"><path d="m498.347656 231.101562c12.382813-12.070312 16.753906-29.789062 11.410156-46.234374-5.34375-16.449219-19.296874-28.210938-36.410156-30.699219l-114.378906-16.617188c-4.917969-.714843-9.171875-3.804687-11.371094-8.265625l-51.152344-103.640625c-7.652343-15.511719-23.152343-25.144531-40.445312-25.144531-17.296875 0-32.792969 9.632812-40.449219 25.144531l-51.148437 103.640625c-2.199219 4.460938-6.453125 7.550782-11.371094 8.265625l-114.378906 16.617188c-17.113282 2.488281-31.066406 14.25-36.410156 30.699219-5.34375 16.445312-.972657 34.164062 11.414062 46.234374l82.761719 80.675782c3.5625 3.472656 5.1875 8.46875 4.34375 13.371094l-19.539063 113.914062c-2.921875 17.046875 3.953125 33.949219 17.945313 44.117188 7.90625 5.742187 17.15625 8.660156 26.46875 8.660156 7.167969 0 14.375-1.726563 21.03125-5.226563l102.304687-53.785156c4.398438-2.3125 9.65625-2.3125 14.054688 0l102.304687 53.785156c15.308594 8.046875 33.507813 6.730469 47.5-3.433593 13.992188-10.164063 20.867188-27.070313 17.941407-44.113282l-19.535157-113.917968c-.84375-4.898438.78125-9.898438 4.34375-13.371094zm-103.148437 227.804688c-4.757813 3.457031-10.703125 3.886719-15.90625 1.152344l-102.304688-53.785156c-6.570312-3.453126-13.777343-5.179688-20.988281-5.179688-7.207031 0-14.417969 1.726562-20.988281 5.179688l-102.304688 53.785156c-5.203125 2.734375-11.148437 2.304687-15.90625-1.152344-4.753906-3.453125-7-8.976562-6.007812-14.769531l19.539062-113.917969c2.507813-14.632812-2.339843-29.558594-12.972656-39.921875l-82.765625-80.675781c-4.210938-4.105469-5.640625-9.894532-3.820312-15.484375 1.816406-5.589844 6.375-9.433594 12.191406-10.277344l114.378906-16.621094c14.691406-2.136719 27.386719-11.359375 33.960938-24.675781l51.148437-103.640625c2.601563-5.273437 7.667969-8.421875 13.546875-8.421875s10.941406 3.148438 13.542969 8.421875l51.152343 103.640625c6.570313 13.316406 19.265626 22.539062 33.960938 24.675781l114.375 16.621094c5.820312.84375 10.378906 4.6875 12.195312 10.277344 1.816407 5.59375.386719 11.378906-3.820312 15.484375l-82.765625 80.675781c-10.632813 10.363281-15.484375 25.289063-12.972656 39.921875l19.535156 113.917969c.996094 5.792969-1.25 11.316406-6.003906 14.769531zm0 0"/><path d="m314.089844 300.320312-10.363282 7.910157c-13.628906 10.40625-30.578124 16.136719-47.726562 16.136719s-34.101562-5.730469-47.730469-16.136719l-10.363281-7.910157c-6.582031-5.027343-15.996094-3.761718-21.023438 2.820313-5.027343 6.585937-3.765624 16 2.820313 21.027344l10.363281 7.910156c18.828125 14.375 42.242188 22.289063 65.933594 22.289063 23.6875 0 47.105469-7.914063 65.933594-22.289063l10.363281-7.914063c6.582031-5.027343 7.847656-14.4375 2.820313-21.023437-5.027344-6.585937-14.441407-7.847656-21.027344-2.820313zm0 0"/><path d="m227.585938 233.5c0 11.539062-9.355469 20.894531-20.898438 20.894531-11.539062 0-20.894531-9.355469-20.894531-20.894531s9.355469-20.894531 20.894531-20.894531c11.542969 0 20.898438 9.355469 20.898438 20.894531zm0 0"/><path d="m326.207031 233.5c0 11.539062-9.355469 20.894531-20.898437 20.894531-11.539063 0-20.894532-9.355469-20.894532-20.894531s9.355469-20.894531 20.894532-20.894531c11.542968 0 20.898437 9.355469 20.898437 20.894531zm0 0"/></svg>