<?xml version="1.0" encoding="UTF-8" standalone="no"?>
<!-- Created with Inkscape (http://www.inkscape.org/) -->

<svg
   version="1.1"
   id="svg1218"
   xml:space="preserve"
   width="682.66669"
   height="682.66669"
   viewBox="0 0 682.66669 682.66669"
   xmlns="http://www.w3.org/2000/svg"
   xmlns:svg="http://www.w3.org/2000/svg"><defs
     id="defs1222"><clipPath
       clipPathUnits="userSpaceOnUse"
       id="clipPath1232"><path
         d="M 0,512 H 512 V 0 H 0 Z"
         id="path1230" /></clipPath></defs><g
     id="g1224"
     transform="matrix(1.3333333,0,0,-1.3333333,0,682.66667)"><g
       id="g1226"><g
         id="g1228"
         clip-path="url(#clipPath1232)"><g
           id="g1234"
           transform="translate(361.0664,257.9287)"><path
             d="M 0,0 V -16.568 C 0,-42.18 10.174,-66.743 28.284,-84.853 v 0"
             style="fill:none;stroke:#000000;stroke-width:30;stroke-linecap:round;stroke-linejoin:round;stroke-miterlimit:10;stroke-dasharray:none;stroke-opacity:1"
             id="path1236" /></g><g
           id="g1238"
           transform="translate(205.5029,158.9336)"><path
             d="m 0,0 v 0 c 11.715,11.716 11.715,30.711 0,42.427 l -28.285,28.284 c -11.715,11.716 -30.71,11.716 -42.426,0 -11.716,-11.716 -11.716,-30.711 0,-42.426 L -42.427,0 C -30.711,-11.715 -11.716,-11.715 0,0 Z"
             style="fill:none;stroke:#000000;stroke-width:30;stroke-linecap:round;stroke-linejoin:round;stroke-miterlimit:10;stroke-dasharray:none;stroke-opacity:1"
             id="path1240" /></g><g
           id="g1242"
           transform="translate(269.1426,180.147)"><path
             d="m 0,0 v 0 c 11.716,11.716 11.716,30.711 0,42.426 l -63.64,63.64 c -11.715,11.716 -30.711,11.716 -42.426,0 -11.716,-11.716 -11.716,-30.711 0,-42.426 L -42.427,0 C -30.711,-11.716 -11.716,-11.716 0,0 Z"
             style="fill:none;stroke:#000000;stroke-width:30;stroke-linecap:round;stroke-linejoin:round;stroke-miterlimit:10;stroke-dasharray:none;stroke-opacity:1"
             id="path1244" /></g><g
           id="g1246"
           transform="translate(290.3555,286.2129)"><path
             d="m 0,0 -56.568,56.569 c -11.716,11.715 -30.711,11.715 -42.427,0 v -0.001 c -11.715,-11.715 -11.715,-30.71 0,-42.426 l 56.569,-56.568"
             style="fill:none;stroke:#000000;stroke-width:30;stroke-linecap:round;stroke-linejoin:round;stroke-miterlimit:10;stroke-dasharray:none;stroke-opacity:1"
             id="path1248" /></g><g
           id="g1250"
           transform="translate(339.8525,321.5684)"><path
             d="m 0,0 -49.497,49.498 c -11.716,11.715 -30.711,11.715 -42.426,0 -11.716,-11.716 -11.716,-30.711 0,-42.427 l 49.497,-49.497"
             style="fill:none;stroke:#000000;stroke-width:30;stroke-linecap:round;stroke-linejoin:round;stroke-miterlimit:10;stroke-dasharray:none;stroke-opacity:1"
             id="path1252" /></g><g
           id="g1254"
           transform="translate(361.0664,257.9292)"><path
             d="m 0,0 -35.355,-35.356 c -15.622,-15.621 -40.948,-15.621 -56.569,0 -7.81,7.811 -7.81,20.474 0,28.284 l 70.71,70.712 c 15.621,15.62 40.947,15.62 56.569,0 L 89.629,9.366 c 26.707,-26.707 33.328,-67.508 16.436,-101.29 v 0 l 16.656,-16.655 -134.352,-134.35 -16.653,16.655 c -22.088,-4.418 -44.923,2.495 -60.851,18.423 l -94.713,94.713"
             style="fill:none;stroke:#000000;stroke-width:30;stroke-linecap:round;stroke-linejoin:round;stroke-miterlimit:10;stroke-dasharray:none;stroke-opacity:1"
             id="path1256" /></g><g
           id="g1258"
           transform="translate(205.5029,158.9336)"><path
             d="m 0,0 v 0 c 11.715,11.716 11.715,30.711 0,42.427 l -28.285,28.284 c -11.715,11.716 -30.71,11.716 -42.426,0 -11.716,-11.716 -11.716,-30.711 0,-42.426 L -42.427,0 C -30.711,-11.715 -11.716,-11.715 0,0 Z"
             style="fill:none;stroke:#000000;stroke-width:30;stroke-linecap:round;stroke-linejoin:round;stroke-miterlimit:10;stroke-dasharray:none;stroke-opacity:1"
             id="path1260" /></g><g
           id="g1262"
           transform="translate(269.1426,180.147)"><path
             d="m 0,0 v 0 c 11.716,11.716 11.716,30.711 0,42.426 l -63.64,63.64 c -11.715,11.716 -30.711,11.716 -42.426,0 -11.716,-11.716 -11.716,-30.711 0,-42.426 L -42.427,0 C -30.711,-11.716 -11.716,-11.716 0,0 Z"
             style="fill:none;stroke:#000000;stroke-width:30;stroke-linecap:round;stroke-linejoin:round;stroke-miterlimit:10;stroke-dasharray:none;stroke-opacity:1"
             id="path1264" /></g><g
           id="g1266"
           transform="translate(290.3555,286.2129)"><path
             d="m 0,0 -56.568,56.569 c -11.716,11.715 -30.711,11.715 -42.427,0 v -0.001 c -11.715,-11.715 -11.715,-30.71 0,-42.426 l 56.569,-56.568"
             style="fill:none;stroke:#000000;stroke-width:30;stroke-linecap:round;stroke-linejoin:round;stroke-miterlimit:10;stroke-dasharray:none;stroke-opacity:1"
             id="path1268" /></g><g
           id="g1270"
           transform="translate(339.8525,321.5684)"><path
             d="m 0,0 -49.497,49.498 c -11.716,11.715 -30.711,11.715 -42.426,0 -11.716,-11.716 -11.716,-30.711 0,-42.427 l 49.497,-49.497"
             style="fill:none;stroke:#000000;stroke-width:30;stroke-linecap:round;stroke-linejoin:round;stroke-miterlimit:10;stroke-dasharray:none;stroke-opacity:1"
             id="path1272" /></g><g
           id="g1274"
           transform="translate(375.0762,427.5029)"><path
             d="M 0,0 -70.579,-70.579"
             style="fill:none;stroke:#000000;stroke-width:30;stroke-linecap:round;stroke-linejoin:round;stroke-miterlimit:10;stroke-dasharray:none;stroke-opacity:1"
             id="path1276" /></g><g
           id="g1278"
           transform="translate(417.502,385.0762)"><path
             d="M 0,0 -51.88,-51.88"
             style="fill:none;stroke:#000000;stroke-width:30;stroke-linecap:round;stroke-linejoin:round;stroke-miterlimit:10;stroke-dasharray:none;stroke-opacity:1"
             id="path1280" /></g><g
           id="g1282"
           transform="translate(182.624,150.1978)"><path
             d="M 0,0 -45.7,-45.701"
             style="fill:none;stroke:#000000;stroke-width:30;stroke-linecap:round;stroke-linejoin:round;stroke-miterlimit:10;stroke-dasharray:none;stroke-opacity:1"
             id="path1284" /></g><g
           id="g1286"
           transform="translate(94.4971,146.9243)"><path
             d="M 0,0 40.294,40.294"
             style="fill:none;stroke:#000000;stroke-width:30;stroke-linecap:round;stroke-linejoin:round;stroke-miterlimit:10;stroke-dasharray:none;stroke-opacity:1"
             id="path1288" /></g><g
           id="g1290"
           transform="translate(30.8579,139.853)"><path
             d="m 0,0 21.213,21.213 c 7.81,7.81 20.474,7.81 28.285,0 l 70.71,-70.711 c 7.811,-7.81 7.811,-20.474 0,-28.284 L 98.995,-98.995 c -7.81,-7.811 -20.474,-7.811 -28.285,0 L 0,-28.285 C -7.811,-20.474 -7.811,-7.811 0,0 Z"
             style="fill:none;stroke:#000000;stroke-width:30;stroke-linecap:round;stroke-linejoin:round;stroke-miterlimit:10;stroke-dasharray:none;stroke-opacity:1"
             id="path1292" /></g><g
           id="g1294"
           transform="translate(360.9336,469.9287)"><path
             d="m 0,0 21.214,21.213 c 7.81,7.811 20.474,7.811 28.284,0 l 70.711,-70.71 c 7.81,-7.811 7.81,-20.474 0,-28.285 L 98.995,-98.995 c -7.81,-7.81 -20.474,-7.81 -28.284,0 L 0,-28.284 C -7.811,-20.474 -7.811,-7.81 0,0 Z"
             style="fill:none;stroke:#000000;stroke-width:30;stroke-linecap:round;stroke-linejoin:round;stroke-miterlimit:10;stroke-dasharray:none;stroke-opacity:1"
             id="path1296" /></g></g></g></g></svg>
