<svg version="1.1" id="Capa_1" xmlns="http://www.w3.org/2000/svg" xmlns:xlink="http://www.w3.org/1999/xlink" x="0px" y="0px" viewBox="0 0 512 512" style="enable-background:new 0 0 512 512;" xml:space="preserve">
<g>
	<path style="fill:none;stroke:#000000;stroke-width:30;stroke-linecap:round;stroke-linejoin:round;stroke-miterlimit:10;" d="&#10;&#9;&#9;M310.46,107.6c1.09,5.6,1.65,11.39,1.65,17.31v63.29c0,50.45-40.9,91.35-91.35,91.35s-91.35-40.9-91.35-91.35v-63.29&#10;&#9;&#9;c0-1.57,0.04-3.12,0.12-4.67"/>
	<g>
		<path style="fill:none;stroke:#000000;stroke-width:30;stroke-linecap:round;stroke-linejoin:round;stroke-miterlimit:10;" d="&#10;&#9;&#9;&#9;M196.68,208.374c7.441,7.213,15.567,11.18,24.08,11.18s16.639-3.967,24.08-11.18"/>
	</g>
	<g>
		
			<line style="fill:none;stroke:#000000;stroke-width:30;stroke-linecap:round;stroke-linejoin:round;stroke-miterlimit:10;" x1="267.5" y1="414.999" x2="359.5" y2="414.999"/>
		
			<line style="fill:none;stroke:#000000;stroke-width:30;stroke-linecap:round;stroke-linejoin:round;stroke-miterlimit:10;" x1="461.5" y1="417.999" x2="484.5" y2="417.999"/>
		
			<line style="fill:none;stroke:#000000;stroke-width:30;stroke-linecap:round;stroke-linejoin:round;stroke-miterlimit:10;" x1="144.5" y1="417.999" x2="167.5" y2="417.999"/>
		<path style="fill:none;stroke:#000000;stroke-width:30;stroke-linecap:round;stroke-linejoin:round;stroke-miterlimit:10;" d="&#10;&#9;&#9;&#9;M267.5,338.999v158h-28.82c-0.11-0.01-0.22-0.01-0.34-0.01c-16.95,0.46-30.84-13.14-30.84-29.99v-8h-17.98&#10;&#9;&#9;&#9;c-12.16,0-22.02-9.86-22.02-22.02v-37.96c0-12.16,9.86-22.02,22.02-22.02h17.98v-8c0-16.57,13.43-30,30-30H267.5z"/>
		<g>
			<path style="fill:none;stroke:#000000;stroke-width:30;stroke-linecap:round;stroke-linejoin:round;stroke-miterlimit:10;" d="&#10;&#9;&#9;&#9;&#9;M361.5,338.999v158h28.82c0.11-0.01,0.22-0.01,0.34-0.01c16.95,0.46,30.84-13.14,30.84-29.99v-8h17.98&#10;&#9;&#9;&#9;&#9;c12.16,0,22.02-9.86,22.02-22.02v-37.96c0-12.16-9.86-22.02-22.02-22.02H421.5v-8c0-16.57-13.43-30-30-30H361.5z"/>
		</g>
	</g>
	<path style="fill:none;stroke:#000000;stroke-width:30;stroke-linecap:round;stroke-linejoin:round;stroke-miterlimit:10;" d="&#10;&#9;&#9;M376.49,339c-23.65-35.56-64.08-59-109.99-59H160.04C86.84,280,27.5,339.34,27.5,412.54V497h210.01h1.17h28.82h94h28.82h1.17h0.01"/>
	
		<line style="fill:none;stroke:#000000;stroke-width:30;stroke-linecap:round;stroke-linejoin:round;stroke-miterlimit:10;" x1="86.125" y1="497" x2="86.125" y2="400"/>
	<path style="fill:none;stroke:#000000;stroke-width:30;stroke-linecap:round;stroke-linejoin:round;stroke-miterlimit:10;" d="&#10;&#9;&#9;M267.5,339.87c16.36-13.67,27.02-33.93,27.93-56.69"/>
	<path style="fill:none;stroke:#000000;stroke-width:30;stroke-linecap:round;stroke-linejoin:round;stroke-miterlimit:10;" d="&#10;&#9;&#9;M139.52,281.58c0.79,39.74,31.3,72.2,70.22,76.04"/>
	<path style="fill:none;stroke:#000000;stroke-width:30;stroke-linecap:round;stroke-linejoin:round;stroke-miterlimit:10;" d="&#10;&#9;&#9;M339.287,15h-141.41c-37.816,0-68.471,30.656-68.471,68.471v36.774h141.41c37.816,0,68.471-30.656,68.471-68.471V15z"/>
</g>
<g>
</g>
<g>
</g>
<g>
</g>
<g>
</g>
<g>
</g>
<g>
</g>
<g>
</g>
<g>
</g>
<g>
</g>
<g>
</g>
<g>
</g>
<g>
</g>
<g>
</g>
<g>
</g>
<g>
</g>
</svg>