<svg width="24" height="24" viewBox="0 0 24 24" fill="none" xmlns="http://www.w3.org/2000/svg" role="img" aria-hidden="true">


<defs>
  <linearGradient id="botFace" x1="5" y1="5" x2="19" y2="20" gradientUnits="userSpaceOnUse">
    <stop stop-color="#77F7FF"></stop>
    <stop offset=".45" stop-color="#7C5CFF"></stop>
    <stop offset="1" stop-color="#FF4FD8"></stop>
  </linearGradient>
  <linearGradient id="botGlow" x1="4" y1="4" x2="20" y2="21" gradientUnits="userSpaceOnUse">
    <stop stop-color="#00F5A0"></stop>
    <stop offset="1" stop-color="#8B5CFF"></stop>
  </linearGradient>
  <filter id="g" x="-40%" y="-40%" width="180%" height="180%"><feGaussianBlur stdDeviation="1.2" result="b"></feGaussianBlur><feBlend in="SourceGraphic" in2="b"></feBlend></filter>
</defs>
<path class="s" d="M8.25 8.2h7.5c1.78 0 3.2 1.42 3.2 3.2v3.75c0 1.78-1.42 3.2-3.2 3.2h-7.5c-1.78 0-3.2-1.42-3.2-3.2V11.4c0-1.78 1.42-3.2 3.2-3.2Z" fill="#0C1020" stroke="url(#botFace)" stroke-width="1.35" filter="url(#g)"></path>
<path class="s" d="M12 8.2V5.55" stroke="url(#botGlow)" stroke-width="1.35"></path>
<circle cx="12" cy="4.5" r="1.15" fill="#00F5A0"></circle>
<circle cx="9.25" cy="13.05" r="1.15" fill="#77F7FF"></circle>
<circle cx="14.75" cy="13.05" r="1.15" fill="#FF4FD8"></circle>
<path class="s" d="M9.25 15.65c1.55.9 3.95.9 5.5 0" stroke="#FFD36A" stroke-width="1.1"></path>
<path class="s" d="M4.8 12H3.2M20.8 12h-1.6" stroke="url(#botFace)" stroke-width="1.25"></path>
<path class="s" d="M6.7 20.2h10.6" stroke="url(#botGlow)" stroke-width="1.25" opacity=".7"></path>

</svg>