<svg width="24" height="24" viewBox="0 0 24 24" fill="none" xmlns="http://www.w3.org/2000/svg" role="img" aria-hidden="true">


<defs>
  <linearGradient id="gold" x1="6" y1="3" x2="18" y2="21" gradientUnits="userSpaceOnUse">
    <stop stop-color="#FFF2A8"></stop>
    <stop offset=".45" stop-color="#FFD36A"></stop>
    <stop offset="1" stop-color="#B87918"></stop>
  </linearGradient>
  <linearGradient id="violet" x1="4" y1="7" x2="20" y2="21" gradientUnits="userSpaceOnUse">
    <stop stop-color="#8B5CFF"></stop>
    <stop offset="1" stop-color="#00D1FF"></stop>
  </linearGradient>
</defs>
<path d="M8.15 3.75h7.7l-.62 5.05c-.25 2.05-1.92 3.58-3.23 3.58s-2.98-1.53-3.23-3.58L8.15 3.75Z" fill="url(#gold)"></path>
<path class="s" d="M8.15 3.75h7.7l-.62 5.05c-.25 2.05-1.92 3.58-3.23 3.58s-2.98-1.53-3.23-3.58L8.15 3.75Z" stroke="#FFEFA8" stroke-width=".85"></path>
<path class="s" d="M8.35 5.6H5.85c0 2.6 1.32 4.08 3.43 4.28M15.65 5.6h2.5c0 2.6-1.32 4.08-3.43 4.28" stroke="url(#gold)" stroke-width="1.25"></path>
<path class="s" d="M12 12.45v3.15" stroke="url(#violet)" stroke-width="1.55"></path>
<path d="M8.4 20.25h7.2c.55 0 1-.45 1-1v-.4c0-.55-.45-1-1-1H8.4c-.55 0-1 .45-1 1v.4c0 .55.45 1 1 1Z" fill="url(#violet)" opacity=".9"></path>
<path d="M10.3 7.6 12 6.5l1.7 1.1-.5 1.95h-2.4L10.3 7.6Z" fill="#07101B" opacity=".65"></path>

</svg>