<svg width="24" height="24" viewBox="0 0 24 24" fill="none" xmlns="http://www.w3.org/2000/svg" role="img" aria-hidden="true">


<defs>
  <linearGradient id="doc" x1="6" y1="3" x2="19" y2="21" gradientUnits="userSpaceOnUse">
    <stop stop-color="#E8E6FF"></stop>
    <stop offset=".5" stop-color="#9B95C8"></stop>
    <stop offset="1" stop-color="#5A5F88"></stop>
  </linearGradient>
  <linearGradient id="spark" x1="5" y1="6" x2="19" y2="18" gradientUnits="userSpaceOnUse">
    <stop stop-color="#00F5A0"></stop>
    <stop offset="1" stop-color="#FFD36A"></stop>
  </linearGradient>
</defs>
<path d="M7.1 3.5h7.25L18 7.15V19.3c0 .66-.54 1.2-1.2 1.2H7.1c-.66 0-1.2-.54-1.2-1.2V4.7c0-.66.54-1.2 1.2-1.2Z" fill="#0B0D16" stroke="url(#doc)" stroke-width="1.25"></path>
<path d="M14.25 3.7v3.1c0 .33.27.6.6.6h3" stroke="url(#doc)" stroke-width="1.25" stroke-linecap="round" stroke-linejoin="round"></path>
<path class="s" d="M8.8 10.15h5.95M8.8 13.15h6.4M8.8 16.15h3.8" stroke="url(#doc)" stroke-width="1.05" opacity=".78"></path>
<path class="s" d="M17.25 10.1l.58 1.18 1.3.19-.94.92.22 1.3-1.16-.61-1.16.61.22-1.3-.94-.92 1.3-.19.58-1.18Z" fill="url(#spark)" stroke="url(#spark)" stroke-width=".55"></path>
<path d="M4.3 18.3h3" stroke="url(#spark)" stroke-width="1.1" stroke-linecap="round" opacity=".65"></path>

</svg>